<svg width="1080" height="1080" viewBox="0 0 1080 1080" fill="none" xmlns="http://www.w3.org/2000/svg">
<circle cx="540" cy="540" r="540" fill="white"/>
<path d="M540.508 294C531.611 294 522.824 295.537 514.476 298.502L206.372 409.729C195.937 413.572 189.017 423.454 189.017 434.544C189.017 445.634 195.937 455.516 206.372 459.359L269.97 482.307C251.956 510.635 241.741 544.124 241.741 579.37V610.224C241.741 641.407 229.878 673.578 217.246 698.942C210.106 713.216 201.978 727.27 192.532 740.227C189.017 744.948 188.028 751.097 190.005 756.697C191.983 762.297 196.596 766.469 202.308 767.896L272.606 785.464C277.219 786.672 282.162 785.794 286.226 783.268C290.29 780.743 293.146 776.571 294.025 771.849C303.471 724.855 298.748 682.692 291.718 652.497C288.203 636.905 283.48 620.984 276.89 606.381V579.37C276.89 546.21 288.094 514.917 307.535 489.883C321.705 472.864 340.048 459.139 361.577 450.684L534.028 382.938C543.035 379.424 553.25 383.816 556.765 392.82C560.28 401.824 555.886 412.035 546.879 415.548L374.429 483.295C360.808 488.675 348.836 496.91 339.06 507.012L514.366 570.257C522.714 573.221 531.501 574.758 540.399 574.758C549.296 574.758 558.083 573.221 566.431 570.257L874.645 459.359C885.08 455.625 892 445.634 892 434.544C892 423.454 885.08 413.572 874.645 409.729L566.541 298.502C558.193 295.537 549.406 294 540.508 294ZM329.614 706.848C329.614 745.607 424.077 785.904 540.508 785.904C656.94 785.904 751.403 745.607 751.403 706.848L734.598 547.199L578.404 603.636C566.211 608.028 553.36 610.224 540.508 610.224C527.657 610.224 514.696 608.028 502.613 603.636L346.419 547.199L329.614 706.848Z" fill="#A435F0"/>
</svg>
